<svg width="62" height="45" fill="none" xmlns="http://www.w3.org/2000/svg"><path d="M28.716 14.159a.57.57 0 0 1-.58.559.57.57 0 0 1-.579-.56.57.57 0 0 1 .58-.558c.32 0 .58.25.58.559ZM28.688 7.45a.57.57 0 0 1-.58.56.57.57 0 0 1-.579-.56.57.57 0 0 1 .58-.558c.32 0 .579.25.579.559ZM28.754 23.103a.57.57 0 0 1-.58.56c-.32 0-.579-.251-.579-.56a.57.57 0 0 1 .58-.559c.32 0 .58.25.58.56ZM51.931 23.001a.57.57 0 0 1-.58.56.57.57 0 0 1-.579-.56.57.57 0 0 1 .58-.559c.32 0 .58.25.579.56ZM24.08 14.18a.57.57 0 0 1-.579.558.57.57 0 0 1-.579-.559.57.57 0 0 1 .58-.559c.32 0 .58.25.579.56ZM24.052 7.471a.57.57 0 0 1-.58.56.57.57 0 0 1-.578-.56.57.57 0 0 1 .58-.559c.32 0 .579.25.578.56ZM47.296 23.022a.57.57 0 0 1-.58.559.57.57 0 0 1-.58-.56.57.57 0 0 1 .58-.558c.32 0 .58.25.58.559ZM24.119 23.123a.57.57 0 0 1-.58.56.57.57 0 0 1-.579-.56c0-.308.26-.559.58-.559.32 0 .579.25.579.56ZM28.669 2.979a.57.57 0 0 1-.58.559.57.57 0 0 1-.579-.56.57.57 0 0 1 .58-.558c.32 0 .579.25.579.559ZM28.735 18.631a.57.57 0 0 1-.58.559.57.57 0 0 1-.579-.559.57.57 0 0 1 .58-.559c.32 0 .58.25.58.559ZM28.707 11.923a.57.57 0 0 1-.58.559.57.57 0 0 1-.58-.56.57.57 0 0 1 .58-.558c.32 0 .58.25.58.559ZM47.277 18.55a.57.57 0 0 1-.58.559.57.57 0 0 1-.58-.56c0-.308.26-.558.58-.558.32 0 .58.25.58.559ZM24.1 18.651a.57.57 0 0 1-.58.56.57.57 0 0 1-.579-.56c0-.308.26-.559.58-.559.32 0 .579.25.579.56ZM24.071 11.943a.57.57 0 0 1-.58.56.57.57 0 0 1-.578-.56.57.57 0 0 1 .58-.559c.32 0 .579.25.578.56ZM38.006 18.59a.57.57 0 0 1-.58.56.57.57 0 0 1-.579-.56c0-.308.26-.559.58-.559.32 0 .58.25.579.56ZM14.83 18.692a.57.57 0 0 1-.58.56.57.57 0 0 1-.58-.56.57.57 0 0 1 .58-.559c.32 0 .58.25.58.56ZM37.977 11.882a.57.57 0 0 1-.58.56.57.57 0 0 1-.578-.56.57.57 0 0 1 .58-.559c.32 0 .579.25.578.56ZM37.987 14.118a.57.57 0 0 1-.58.56.57.57 0 0 1-.579-.56c0-.309.26-.559.58-.559.32 0 .58.25.579.56ZM37.959 7.41a.57.57 0 0 1-.58.559.57.57 0 0 1-.58-.559.57.57 0 0 1 .58-.559c.32 0 .58.25.58.559ZM38.025 23.062a.57.57 0 0 1-.58.56.57.57 0 0 1-.579-.56.57.57 0 0 1 .58-.559c.32 0 .58.25.579.56ZM14.848 23.164a.57.57 0 0 1-.58.56.57.57 0 0 1-.579-.56.57.57 0 0 1 .58-.559c.32 0 .58.25.58.56ZM33.352 14.139a.57.57 0 0 1-.58.559.57.57 0 0 1-.58-.56.57.57 0 0 1 .58-.559c.32 0 .58.25.58.56ZM33.323 7.43a.57.57 0 0 1-.58.56.57.57 0 0 1-.579-.56.57.57 0 0 1 .58-.559c.32 0 .58.25.58.56ZM33.39 23.083a.57.57 0 0 1-.58.559.57.57 0 0 1-.58-.56c0-.308.26-.558.58-.558.32 0 .58.25.58.559ZM10.213 23.185a.57.57 0 0 1-.58.559.57.57 0 0 1-.58-.56c.001-.308.26-.559.58-.559.32 0 .58.25.58.56ZM33.304 2.958a.57.57 0 0 1-.58.56.57.57 0 0 1-.579-.56.57.57 0 0 1 .58-.559c.32 0 .58.25.58.56ZM33.37 18.61a.57.57 0 0 1-.58.56.57.57 0 0 1-.578-.56.57.57 0 0 1 .58-.558c.32 0 .579.25.579.559ZM33.342 11.902a.57.57 0 0 1-.58.56.57.57 0 0 1-.579-.56c0-.308.26-.559.58-.559.32 0 .58.25.58.56ZM42.641 18.57a.57.57 0 0 1-.58.559.57.57 0 0 1-.579-.56.57.57 0 0 1 .58-.558c.32 0 .58.25.58.559ZM19.465 18.672a.57.57 0 0 1-.58.559.57.57 0 0 1-.58-.56.57.57 0 0 1 .58-.558c.32 0 .58.25.58.559ZM42.613 11.862a.57.57 0 0 1-.58.559.57.57 0 0 1-.579-.56c0-.308.26-.558.58-.558.32 0 .579.25.579.559ZM19.436 11.964a.57.57 0 0 1-.58.559.57.57 0 0 1-.579-.56c0-.308.26-.558.58-.558.32 0 .58.25.58.559ZM42.622 14.098a.57.57 0 0 1-.58.559.57.57 0 0 1-.578-.56.57.57 0 0 1 .58-.558c.32 0 .579.25.578.559ZM19.445 14.2a.57.57 0 0 1-.58.559.57.57 0 0 1-.578-.56.57.57 0 0 1 .58-.558c.32 0 .579.25.578.559ZM42.66 23.042a.57.57 0 0 1-.58.559.57.57 0 0 1-.579-.559.57.57 0 0 1 .58-.559c.32 0 .58.25.58.559ZM19.483 23.144a.57.57 0 0 1-.58.559.57.57 0 0 1-.578-.56.57.57 0 0 1 .58-.558c.32 0 .579.25.578.559ZM28.726 16.395a.57.57 0 0 1-.58.559.57.57 0 0 1-.58-.559c.001-.309.26-.56.58-.56.32 0 .58.251.58.56ZM28.697 9.687a.57.57 0 0 1-.58.559.57.57 0 0 1-.579-.56.57.57 0 0 1 .58-.558c.32 0 .58.25.58.559ZM28.764 25.34a.57.57 0 0 1-.58.558.57.57 0 0 1-.58-.559c.001-.309.26-.559.58-.559.32 0 .58.25.58.56ZM51.94 25.237a.57.57 0 0 1-.58.56.57.57 0 0 1-.578-.56c0-.308.26-.559.58-.559.32 0 .579.25.578.56ZM5.587 25.441a.57.57 0 0 1-.58.559.57.57 0 0 1-.579-.559.57.57 0 0 1 .58-.559c.32 0 .579.25.579.559ZM47.267 16.314a.57.57 0 0 1-.58.558.57.57 0 0 1-.579-.558.57.57 0 0 1 .58-.56c.32 0 .58.25.58.56ZM24.09 16.415a.57.57 0 0 1-.58.56.57.57 0 0 1-.579-.56.57.57 0 0 1 .58-.559c.32 0 .58.25.58.56ZM24.062 9.707a.57.57 0 0 1-.58.56c-.32 0-.58-.251-.579-.56a.57.57 0 0 1 .58-.559c.32 0 .58.25.579.56ZM47.305 25.258a.57.57 0 0 1-.58.559c-.32 0-.579-.25-.579-.56a.57.57 0 0 1 .58-.558c.32 0 .58.25.58.559ZM24.128 25.36a.57.57 0 0 1-.58.559.57.57 0 0 1-.578-.56.57.57 0 0 1 .58-.559c.32 0 .578.25.578.56ZM28.678 5.215a.57.57 0 0 1-.58.559.57.57 0 0 1-.578-.56.57.57 0 0 1 .58-.558c.32 0 .578.25.578.559ZM28.745 20.867a.57.57 0 0 1-.58.56.57.57 0 0 1-.58-.56.57.57 0 0 1 .58-.559c.32 0 .58.25.58.559ZM51.922 20.765a.57.57 0 0 1-.58.56.57.57 0 0 1-.58-.56.57.57 0 0 1 .58-.559c.32 0 .58.25.58.56ZM47.286 20.786a.57.57 0 0 1-.58.559.57.57 0 0 1-.579-.56.57.57 0 0 1 .58-.558c.32 0 .58.25.58.559ZM24.11 20.887a.57.57 0 0 1-.58.56.57.57 0 0 1-.58-.56.57.57 0 0 1 .58-.559c.32 0 .58.25.58.56ZM38.015 20.826a.57.57 0 0 1-.58.56.57.57 0 0 1-.578-.56.57.57 0 0 1 .58-.559c.32 0 .579.25.578.56ZM14.839 20.928a.57.57 0 0 1-.58.56.57.57 0 0 1-.58-.56.57.57 0 0 1 .58-.559c.32 0 .58.25.58.56ZM37.996 16.354a.57.57 0 0 1-.58.56.57.57 0 0 1-.578-.56.57.57 0 0 1 .58-.559c.32 0 .579.25.578.56ZM14.82 16.456a.57.57 0 0 1-.58.559.57.57 0 0 1-.58-.559.57.57 0 0 1 .58-.559c.32 0 .58.25.58.559ZM37.968 9.646a.57.57 0 0 1-.58.56.57.57 0 0 1-.579-.56.57.57 0 0 1 .58-.559c.32 0 .58.25.579.559ZM38.034 25.298a.57.57 0 0 1-.58.56.57.57 0 0 1-.578-.56.57.57 0 0 1 .58-.559c.32 0 .578.25.578.56ZM14.858 25.4a.57.57 0 0 1-.58.56.57.57 0 0 1-.58-.56.57.57 0 0 1 .58-.559c.32 0 .58.25.58.56ZM33.361 16.375a.57.57 0 0 1-.58.559.57.57 0 0 1-.579-.56.57.57 0 0 1 .58-.558c.32 0 .58.25.58.559ZM33.333 9.666a.57.57 0 0 1-.58.56.57.57 0 0 1-.58-.56.57.57 0 0 1 .58-.559c.32 0 .58.25.58.56ZM33.399 25.319a.57.57 0 0 1-.58.559.57.57 0 0 1-.579-.56.57.57 0 0 1 .58-.558c.32 0 .58.25.579.559ZM56.576 25.217a.57.57 0 0 1-.58.559.57.57 0 0 1-.579-.559.57.57 0 0 1 .58-.559c.32 0 .579.25.579.559ZM10.222 25.42a.57.57 0 0 1-.58.56.57.57 0 0 1-.579-.56.57.57 0 0 1 .58-.558c.32 0 .58.25.58.559ZM33.314 5.194a.57.57 0 0 1-.58.56.57.57 0 0 1-.58-.56.57.57 0 0 1 .58-.559c.32 0 .58.25.58.56ZM33.38 20.847a.57.57 0 0 1-.58.559.57.57 0 0 1-.579-.56.57.57 0 0 1 .58-.558c.32 0 .58.25.58.559ZM10.203 20.948a.57.57 0 0 1-.58.56.57.57 0 0 1-.579-.56.57.57 0 0 1 .58-.558c.32 0 .58.25.58.558ZM42.65 20.806a.57.57 0 0 1-.579.559.57.57 0 0 1-.58-.559c.001-.309.26-.56.58-.56.32 0 .58.251.58.56ZM19.474 20.908a.57.57 0 0 1-.58.559.57.57 0 0 1-.579-.56.57.57 0 0 1 .58-.558c.32 0 .58.25.579.559ZM42.632 16.334a.57.57 0 0 1-.58.559.57.57 0 0 1-.579-.56.57.57 0 0 1 .58-.558c.32 0 .579.25.579.559ZM19.455 16.436a.57.57 0 0 1-.58.559.57.57 0 0 1-.579-.56c0-.308.26-.558.58-.558.32 0 .58.25.579.559ZM42.67 25.278a.57.57 0 0 1-.58.56.57.57 0 0 1-.58-.56.57.57 0 0 1 .58-.559c.32 0 .58.25.58.56ZM19.493 25.38a.57.57 0 0 1-.58.559.57.57 0 0 1-.579-.56.57.57 0 0 1 .58-.558c.32 0 .58.25.579.559ZM31.034 14.149a.57.57 0 0 1-.58.559.57.57 0 0 1-.579-.56.57.57 0 0 1 .58-.558c.32 0 .58.25.579.559ZM31.006 7.44a.57.57 0 0 1-.58.56.57.57 0 0 1-.58-.56.57.57 0 0 1 .58-.558c.32 0 .58.25.58.559ZM31.072 23.093a.57.57 0 0 1-.58.559.57.57 0 0 1-.579-.56.57.57 0 0 1 .58-.558c.32 0 .579.25.579.559ZM54.249 22.991a.57.57 0 0 1-.58.56.57.57 0 0 1-.58-.56.57.57 0 0 1 .58-.559c.32 0 .58.25.58.56ZM7.895 23.195a.57.57 0 0 1-.58.559.57.57 0 0 1-.579-.56.57.57 0 0 1 .58-.558c.32 0 .58.25.58.559ZM26.399 14.17a.57.57 0 0 1-.58.558.57.57 0 0 1-.58-.559.57.57 0 0 1 .58-.559c.32 0 .58.25.58.56ZM26.37 7.46a.57.57 0 0 1-.58.56.57.57 0 0 1-.579-.56.57.57 0 0 1 .58-.558c.32 0 .58.25.58.559ZM49.613 23.012a.57.57 0 0 1-.58.558.57.57 0 0 1-.579-.558.57.57 0 0 1 .58-.56c.32 0 .58.25.58.56ZM26.436 23.113a.57.57 0 0 1-.58.56.57.57 0 0 1-.578-.56.57.57 0 0 1 .58-.559c.32 0 .579.25.578.56ZM30.986 2.968a.57.57 0 0 1-.58.56.57.57 0 0 1-.578-.56.57.57 0 0 1 .58-.559c.32 0 .579.25.578.56ZM31.053 18.62a.57.57 0 0 1-.58.56c-.32 0-.58-.25-.579-.56a.57.57 0 0 1 .58-.558c.32 0 .58.25.579.559ZM31.024 11.913a.57.57 0 0 1-.58.559.57.57 0 0 1-.578-.56c0-.308.26-.558.58-.558.32 0 .579.25.578.559ZM49.594 18.54a.57.57 0 0 1-.58.558.57.57 0 0 1-.579-.559.57.57 0 0 1 .58-.559c.32 0 .58.25.58.56ZM26.418 18.641a.57.57 0 0 1-.58.56.57.57 0 0 1-.58-.56c0-.309.26-.559.58-.559.32 0 .58.25.58.56ZM26.39 11.933a.57.57 0 0 1-.58.559.57.57 0 0 1-.58-.559.57.57 0 0 1 .58-.559c.32 0 .58.25.58.559ZM40.324 18.58a.57.57 0 0 1-.58.56.57.57 0 0 1-.58-.56.57.57 0 0 1 .58-.559c.32 0 .58.25.58.56ZM17.147 18.682a.57.57 0 0 1-.58.559.57.57 0 0 1-.579-.56.57.57 0 0 1 .58-.558c.32 0 .579.25.579.559ZM40.295 11.872a.57.57 0 0 1-.58.559.57.57 0 0 1-.579-.56.57.57 0 0 1 .58-.558c.32 0 .58.25.58.559ZM40.305 14.108a.57.57 0 0 1-.58.559.57.57 0 0 1-.58-.559c0-.309.26-.56.58-.56.32 0 .58.251.58.56ZM17.128 14.21a.57.57 0 0 1-.58.559.57.57 0 0 1-.579-.56.57.57 0 0 1 .58-.558c.32 0 .579.25.579.559ZM40.343 23.052a.57.57 0 0 1-.58.56.57.57 0 0 1-.58-.56.57.57 0 0 1 .58-.559c.32 0 .58.25.58.56ZM17.166 23.154a.57.57 0 0 1-.58.559c-.32 0-.58-.25-.579-.559a.57.57 0 0 1 .58-.559c.32 0 .579.25.579.559ZM35.67 14.128a.57.57 0 0 1-.58.56.57.57 0 0 1-.58-.56.57.57 0 0 1 .58-.559c.32 0 .58.25.58.56ZM35.64 7.42a.57.57 0 0 1-.579.56.57.57 0 0 1-.579-.56.57.57 0 0 1 .58-.559c.32 0 .579.25.579.56ZM35.707 23.073a.57.57 0 0 1-.58.559.57.57 0 0 1-.579-.56.57.57 0 0 1 .58-.558c.32 0 .58.25.58.559ZM12.53 23.174a.57.57 0 0 1-.58.56.57.57 0 0 1-.578-.56c0-.308.26-.559.58-.559.32 0 .579.25.579.56ZM35.688 18.6a.57.57 0 0 1-.58.56.57.57 0 0 1-.579-.56c0-.308.26-.559.58-.559.32 0 .58.25.58.56ZM12.511 18.702a.57.57 0 0 1-.58.56.57.57 0 0 1-.578-.56.57.57 0 0 1 .58-.559c.32 0 .579.25.579.56ZM35.66 11.892a.57.57 0 0 1-.58.56.57.57 0 0 1-.579-.56.57.57 0 0 1 .58-.559c.32 0 .579.25.579.56ZM44.959 18.56a.57.57 0 0 1-.58.559.57.57 0 0 1-.579-.56.57.57 0 0 1 .58-.558c.32 0 .58.25.579.559ZM21.782 18.662a.57.57 0 0 1-.58.559.57.57 0 0 1-.579-.56.57.57 0 0 1 .58-.559c.32 0 .58.25.58.56ZM21.754 11.953a.57.57 0 0 1-.58.56.57.57 0 0 1-.58-.56c.001-.308.26-.559.58-.559.32 0 .58.25.58.56ZM44.94 14.088a.57.57 0 0 1-.58.559.57.57 0 0 1-.579-.56.57.57 0 0 1 .58-.558c.32 0 .58.25.579.559ZM21.763 14.19a.57.57 0 0 1-.58.559.57.57 0 0 1-.579-.56.57.57 0 0 1 .58-.559c.32 0 .58.25.58.56ZM44.978 23.032a.57.57 0 0 1-.58.559.57.57 0 0 1-.579-.56.57.57 0 0 1 .58-.558c.32 0 .58.25.579.559ZM21.801 23.134a.57.57 0 0 1-.58.559.57.57 0 0 1-.579-.56c0-.308.26-.558.58-.558.32 0 .58.25.58.559ZM30.977.732a.57.57 0 0 1-.58.56.57.57 0 0 1-.579-.56.57.57 0 0 1 .58-.559c.32 0 .58.25.579.56ZM31.043 16.385a.57.57 0 0 1-.58.559.57.57 0 0 1-.578-.56.57.57 0 0 1 .58-.558c.32 0 .579.25.578.559ZM31.015 9.677a.57.57 0 0 1-.58.559.57.57 0 0 1-.579-.56.57.57 0 0 1 .58-.558c.32 0 .58.25.579.559ZM31.081 25.329a.57.57 0 0 1-.58.559.57.57 0 0 1-.579-.559.57.57 0 0 1 .58-.559c.32 0 .58.25.58.559ZM54.258 25.227a.57.57 0 0 1-.58.56.57.57 0 0 1-.579-.56.57.57 0 0 1 .58-.559c.32 0 .58.25.58.56ZM7.905 25.43a.57.57 0 0 1-.58.56.57.57 0 0 1-.58-.56.57.57 0 0 1 .58-.558c.32 0 .58.25.58.559ZM26.408 16.405a.57.57 0 0 1-.58.56.57.57 0 0 1-.579-.56.57.57 0 0 1 .58-.559c.32 0 .58.25.58.56ZM26.38 9.697a.57.57 0 0 1-.58.559.57.57 0 0 1-.58-.56.57.57 0 0 1 .58-.558c.32 0 .58.25.58.559ZM49.623 25.247a.57.57 0 0 1-.58.56.57.57 0 0 1-.58-.56.57.57 0 0 1 .58-.558c.32 0 .58.25.58.558ZM26.446 25.35a.57.57 0 0 1-.58.558.57.57 0 0 1-.579-.559.57.57 0 0 1 .58-.559c.32 0 .58.25.579.56ZM30.996 5.204a.57.57 0 0 1-.58.56.57.57 0 0 1-.579-.56.57.57 0 0 1 .58-.559c.32 0 .58.25.579.56ZM31.062 20.857a.57.57 0 0 1-.58.559.57.57 0 0 1-.578-.56.57.57 0 0 1 .58-.558c.32 0 .578.25.578.559ZM26.36 5.225a.57.57 0 0 1-.58.559.57.57 0 0 1-.578-.56.57.57 0 0 1 .58-.558c.32 0 .579.25.579.559ZM49.604 20.775a.57.57 0 0 1-.58.56c-.32 0-.58-.25-.579-.56a.57.57 0 0 1 .58-.559c.32 0 .579.25.579.56ZM26.427 20.877a.57.57 0 0 1-.58.56.57.57 0 0 1-.579-.56.57.57 0 0 1 .58-.559c.32 0 .58.25.579.56ZM40.333 20.816a.57.57 0 0 1-.58.56.57.57 0 0 1-.579-.56.57.57 0 0 1 .58-.559c.32 0 .58.25.58.56ZM17.156 20.918a.57.57 0 0 1-.58.559.57.57 0 0 1-.579-.56.57.57 0 0 1 .58-.558c.32 0 .58.25.58.559ZM40.314 16.344a.57.57 0 0 1-.58.56.57.57 0 0 1-.579-.56.57.57 0 0 1 .58-.559c.32 0 .58.25.58.559ZM17.137 16.446a.57.57 0 0 1-.58.559.57.57 0 0 1-.578-.56c0-.308.26-.558.58-.558.32 0 .578.25.578.559ZM40.286 9.636a.57.57 0 0 1-.58.559.57.57 0 0 1-.58-.56.57.57 0 0 1 .58-.558c.32 0 .58.25.58.559ZM40.352 25.288a.57.57 0 0 1-.58.56.57.57 0 0 1-.579-.56c0-.308.26-.559.58-.559.32 0 .58.25.58.56ZM17.175 25.39a.57.57 0 0 1-.58.56.57.57 0 0 1-.578-.56.57.57 0 0 1 .58-.559c.32 0 .578.25.578.56ZM35.679 16.364a.57.57 0 0 1-.58.56.57.57 0 0 1-.58-.56.57.57 0 0 1 .58-.559c.32 0 .58.25.58.56ZM35.65 9.656a.57.57 0 0 1-.58.56.57.57 0 0 1-.578-.56.57.57 0 0 1 .58-.559c.32 0 .578.25.578.56ZM35.717 25.309a.57.57 0 0 1-.58.559c-.32 0-.58-.25-.58-.56a.57.57 0 0 1 .58-.558c.32 0 .58.25.58.559ZM12.54 25.41a.57.57 0 0 1-.58.56.57.57 0 0 1-.579-.56.57.57 0 0 1 .58-.559c.32 0 .58.25.579.56ZM35.631 5.184a.57.57 0 0 1-.58.56.57.57 0 0 1-.579-.56.57.57 0 0 1 .58-.559c.32 0 .58.25.58.56ZM35.698 20.837a.57.57 0 0 1-.58.558.57.57 0 0 1-.58-.558.57.57 0 0 1 .58-.56c.32 0 .58.25.58.56ZM12.521 20.938a.57.57 0 0 1-.58.56.57.57 0 0 1-.579-.56.57.57 0 0 1 .58-.559c.32 0 .58.25.579.56ZM44.968 20.796a.57.57 0 0 1-.58.559.57.57 0 0 1-.578-.56.57.57 0 0 1 .58-.558c.32 0 .579.25.578.559ZM21.792 20.898a.57.57 0 0 1-.58.559.57.57 0 0 1-.58-.56.57.57 0 0 1 .58-.558c.32 0 .58.25.58.559ZM44.95 16.324a.57.57 0 0 1-.58.559.57.57 0 0 1-.58-.56.57.57 0 0 1 .58-.558c.32 0 .58.25.58.559ZM21.773 16.425a.57.57 0 0 1-.58.56.57.57 0 0 1-.58-.56.57.57 0 0 1 .58-.559c.32 0 .58.25.58.56ZM21.744 9.717a.57.57 0 0 1-.58.56.57.57 0 0 1-.579-.56.57.57 0 0 1 .58-.559c.32 0 .58.25.58.56ZM44.987 25.268a.57.57 0 0 1-.58.559.57.57 0 0 1-.578-.56.57.57 0 0 1 .58-.558c.32 0 .579.25.578.559ZM21.81 25.37a.57.57 0 0 1-.579.559.57.57 0 0 1-.58-.56.57.57 0 0 1 .58-.558c.32 0 .58.25.58.559ZM2.8 36.232v-.483c0-.117.066-.22.196-.308a.7.7 0 0 1 .395-.136c.13 0 .26.045.391.136.134.088.2.19.2.308v.483c0 .118-.067.222-.2.313a.694.694 0 0 1-.39.132.717.717 0 0 1-.396-.132c-.13-.091-.195-.195-.195-.313ZM1.42 38.327v-.683h2.417v4.672h1.533V43H1.248v-.684h1.7v-3.989h-1.53ZM9.78 43h-.889v-5.356h.728l.073.99c.218-.377.505-.663.86-.859a2.46 2.46 0 0 1 1.205-.293h.43v.826h-.557c-.57 0-1.02.143-1.352.43-.332.282-.498.71-.498 1.284V43Zm15.406-1.196v-1.367l-.728.102c-.508.072-.86.143-1.055.215-.436.166-.654.444-.654.835 0 .27.078.485.235.644.156.16.37.24.644.24.602 0 1.121-.223 1.558-.67Zm0-2.495c0-.765-.324-1.148-.972-1.148-.306 0-.645.036-1.016.108-.367.071-.626.14-.776.205l-.21-.655c.674-.224 1.307-.337 1.9-.337.592 0 1.067.136 1.425.406.358.27.537.687.537 1.25V43h-.737l-.117-.62a2.534 2.534 0 0 1-.806.532c-.325.14-.644.21-.957.21-.452 0-.828-.135-1.128-.405-.3-.274-.449-.658-.449-1.152 0-.499.195-.863.586-1.094.264-.163.544-.274.84-.332.3-.062.688-.122 1.167-.181l.713-.083v-.566ZM30.648 43h-.888v-5.356h.727l.074.99c.218-.377.504-.663.859-.859a2.46 2.46 0 0 1 1.206-.293h.43v.826h-.557c-.57 0-1.02.143-1.353.43-.332.282-.498.71-.498 1.284V43Zm6.956 0h-.888v-5.356h.727l.073.99c.218-.377.505-.663.86-.859a2.46 2.46 0 0 1 1.206-.293h.43v.826h-.557c-.57 0-1.02.143-1.353.43-.332.282-.498.71-.498 1.284V43Zm6.932-6.768v-.483c0-.117.065-.22.195-.308a.7.7 0 0 1 .396-.136c.13 0 .26.045.39.136.134.088.2.19.2.308v.483c0 .118-.066.222-.2.313a.694.694 0 0 1-.39.132.717.717 0 0 1-.396-.132c-.13-.091-.195-.195-.195-.313Zm-1.382 2.095v-.683h2.417v4.672h1.533V43h-4.121v-.684h1.7v-3.989h-1.53Zm7.468 2.632c.06.456.196.815.41 1.08.219.263.55.395.997.395.602 0 1.009-.313 1.22-.938.108-.329.161-.67.161-1.025 0-.358-.01-.633-.034-.825-.048-.456-.177-.816-.385-1.08-.206-.267-.526-.4-.962-.4-.73 0-1.175.352-1.338 1.055a4.144 4.144 0 0 0-.103.942c0 .332.012.597.035.796Zm-.034-2.578c.362-.6.902-.899 1.621-.899.723 0 1.252.26 1.587.782.339.52.508 1.175.508 1.963 0 1.032-.244 1.808-.732 2.329-.352.377-.83.566-1.436.566-.4 0-.706-.073-.918-.22a3.139 3.139 0 0 1-.63-.634l-.01.732H49.7v-7.544l.888-.098v3.023Zm9.378 3.423v-1.367l-.727.102c-.508.072-.86.143-1.055.215-.436.166-.654.444-.654.835 0 .27.078.485.234.644.156.16.371.24.644.24.603 0 1.122-.223 1.558-.67Zm0-2.495c0-.765-.324-1.148-.972-1.148-.306 0-.644.036-1.015.108-.368.071-.627.14-.777.205l-.21-.655c.674-.224 1.307-.337 1.9-.337.592 0 1.067.136 1.426.406.358.27.537.687.537 1.25V43h-.738L60 42.38a2.534 2.534 0 0 1-.806.532c-.325.14-.644.21-.957.21-.452 0-.828-.135-1.127-.405-.3-.274-.45-.658-.45-1.152 0-.499.196-.863.586-1.094.264-.163.544-.274.84-.332.3-.062.689-.122 1.167-.181l.713-.083v-.566Z" fill="#fff"/></svg>