<svg width="360" height="291" viewBox="0 0 360 291" fill="none" xmlns="http://www.w3.org/2000/svg">
<g clip-path="url(#clip0_168_168)">
<g filter="url(#filter0_f_168_168)">
<path d="M-19 -7L75 87" stroke="url(#paint0_linear_168_168)" stroke-width="5"/>
<path d="M26 124L98 196" stroke="url(#paint1_linear_168_168)" stroke-width="5"/>
<path d="M22 -8L122 92M62 -8L163 93M122 88.5355L78 132.536M162 90.5355L99 153.536M78 129L102 153" stroke="url(#paint2_linear_168_168)" stroke-width="5" stroke-linejoin="round"/>
<path d="M226.464 154L375.464 5M187 111L230 154" stroke="url(#paint3_linear_168_168)" stroke-width="5"/>
<path d="M390.232 151.768L327.232 214.768M307 191L330 214" stroke="url(#paint4_linear_168_168)" stroke-width="5"/>
<path d="M394.232 110.768L331.232 173.768M311 150L334 173M271.464 192L313.997 149.468M250 169L274 193M250.464 172L399.464 23" stroke="url(#paint5_linear_168_168)" stroke-width="5"/>
<path d="M145 29L230 114M144.464 31.9619L179.464 -3.03809M226.464 114L270.464 70" stroke="url(#paint6_radial_168_168)" stroke-width="5"/>
<path d="M266 29.0001L289 52.0001M187 32.0001L228 73.0001M224.464 72.9617L268.977 28.4494M285.464 51.9998L343.464 -6.00024" stroke="url(#paint7_linear_168_168)" stroke-width="5"/>
<path d="M390.232 192.768L327.232 255.768M289 214L330 255" stroke="url(#paint8_linear_168_168)" stroke-width="5"/>
</g>
</g>
<defs>
<filter id="filter0_f_168_168" x="-24.7678" y="-13.7678" width="430" height="308.768" filterUnits="userSpaceOnUse" color-interpolation-filters="sRGB">
<feFlood flood-opacity="0" result="BackgroundImageFix"/>
<feBlend mode="normal" in="SourceGraphic" in2="BackgroundImageFix" result="shape"/>
<feGaussianBlur stdDeviation="2" result="effect1_foregroundBlur_168_168"/>
</filter>
<linearGradient id="paint0_linear_168_168" x1="-23.5" y1="-12" x2="44" y2="87" gradientUnits="userSpaceOnUse">
<stop offset="0.40625" stop-color="#0088B2"/>
<stop offset="1" stop-color="#0088B2" stop-opacity="0"/>
</linearGradient>
<linearGradient id="paint1_linear_168_168" x1="109" y1="211.5" x2="17" y2="142.5" gradientUnits="userSpaceOnUse">
<stop stop-color="#400C4C"/>
<stop offset="1" stop-color="#400C4C" stop-opacity="0"/>
</linearGradient>
<linearGradient id="paint2_linear_168_168" x1="133" y1="222.5" x2="44.5" y2="-22" gradientUnits="userSpaceOnUse">
<stop stop-color="#D32C72"/>
<stop offset="0.969709" stop-color="#D32C72" stop-opacity="0"/>
</linearGradient>
<linearGradient id="paint3_linear_168_168" x1="370" y1="35" x2="164" y2="123.5" gradientUnits="userSpaceOnUse">
<stop offset="0.15087" stop-color="#D32C72"/>
<stop offset="1" stop-color="#9F1F66" stop-opacity="0"/>
</linearGradient>
<linearGradient id="paint4_linear_168_168" x1="368.5" y1="169.5" x2="250.5" y2="176.5" gradientUnits="userSpaceOnUse">
<stop stop-color="#701657"/>
<stop offset="1" stop-color="#701657" stop-opacity="0"/>
</linearGradient>
<linearGradient id="paint5_linear_168_168" x1="316.5" y1="101.5" x2="304" y2="204.5" gradientUnits="userSpaceOnUse">
<stop stop-color="#633E89"/>
<stop offset="1" stop-color="#533774" stop-opacity="0"/>
</linearGradient>
<radialGradient id="paint6_radial_168_168" cx="0" cy="0" r="1" gradientUnits="userSpaceOnUse" gradientTransform="translate(292.5 121) rotate(-145.577) scale(206.088 221.869)">
<stop stop-color="#0196C2"/>
<stop offset="0.954597" stop-color="#0090BE" stop-opacity="0"/>
</radialGradient>
<linearGradient id="paint7_linear_168_168" x1="336.5" y1="-1.99993" x2="165.5" y2="37.0001" gradientUnits="userSpaceOnUse">
<stop stop-color="#8A4FB9"/>
<stop offset="0.663027" stop-color="#623D8D" stop-opacity="0"/>
<stop offset="0.893068" stop-color="#6C36AB" stop-opacity="0.67"/>
</linearGradient>
<linearGradient id="paint8_linear_168_168" x1="363" y1="224" x2="296.5" y2="219" gradientUnits="userSpaceOnUse">
<stop stop-color="#DB2C74"/>
<stop offset="1" stop-color="#DB2C74" stop-opacity="0"/>
</linearGradient>
<clipPath id="clip0_168_168">
<rect width="360" height="291" fill="white"/>
</clipPath>
</defs>
</svg>
