<svg width="361" height="599" viewBox="0 0 361 599" fill="none" xmlns="http://www.w3.org/2000/svg">
<g clip-path="url(#clip0_45_397)">
<g filter="url(#filter0_f_45_397)">
<path d="M160.174 91.9241V193.747" stroke="url(#paint0_linear_45_397)" stroke-width="5"/>
<path d="M250.684 21.7663L250.684 91.4727L250.684 137.179M278.968 41.7663L278.968 166.878M253.133 134.729L190.908 134.729M280.003 164.428L190.908 164.428M193.408 132.229L193.408 166.17" stroke="url(#paint1_linear_45_397)" stroke-width="5" stroke-linejoin="round"/>
<path d="M280.711 254.887L491.428 254.887M283.211 196.576V257.387" stroke="url(#paint2_linear_45_397)" stroke-width="5"/>
<path d="M398.09 369.11L308.995 369.11M311.495 337.997V370.524" stroke="url(#paint3_linear_45_397)" stroke-width="5"/>
<path d="M429.91 342.947L340.815 342.947M343.315 311.834V344.361M285.66 313.577L345.81 313.577M286.746 282.136L286.746 316.077M284.953 284.586L495.671 284.586" stroke="url(#paint4_linear_45_397)" stroke-width="5"/>
<path d="M311.495 108.895L311.495 229.103M309.022 110.61H358.519M308.995 226.603H371.22" stroke="url(#paint5_linear_45_397)" stroke-width="5"/>
<path d="M397.055 194.455V226.982M339.072 140.715L339.072 198.697M336.599 196.17L399.549 196.17M394.555 224.481L476.579 224.481" stroke="url(#paint6_linear_45_397)" stroke-width="5"/>
<path d="M369.099 398.101L280.003 398.101M282.503 341.533L282.503 399.515" stroke="url(#paint7_linear_45_397)" stroke-width="5"/>
</g>
<g filter="url(#filter1_f_45_397)">
<path d="M156.411 623.16V433.199" stroke="url(#paint8_linear_45_397)" stroke-width="5"/>
<path d="M217.222 558.349V339.862" stroke="url(#paint9_linear_45_397)" stroke-width="5"/>
<path d="M126.712 537.852V396.431M98.4276 509.568V366.732M124.262 398.881L186.488 398.881M97.3921 369.182L186.488 369.182M183.988 401.381V367.44" stroke="url(#paint10_linear_45_397)" stroke-width="5" stroke-linejoin="round"/>
<path d="M96.685 278.723L-114.033 278.723M94.185 337.034V276.223" stroke="url(#paint11_linear_45_397)" stroke-width="5"/>
<path d="M-20.6947 164.5L68.4007 164.5M65.9007 195.612V163.085" stroke="url(#paint12_linear_45_397)" stroke-width="5"/>
<path d="M-52.5146 190.663L36.5808 190.663M34.0808 221.776V189.249M91.7352 220.033L31.5852 220.033M90.6494 251.474L90.6494 217.533M92.4423 249.024L-118.276 249.024" stroke="url(#paint13_linear_45_397)" stroke-width="5"/>
<path d="M65.9007 424.715L65.9007 304.507M68.3738 423H18.8763M68.4007 307.007H6.1753" stroke="url(#paint14_radial_45_397)" stroke-width="5"/>
<path d="M-19.6592 339.155V306.628M38.3236 392.895L38.3236 334.913M40.7964 337.44L-22.1536 337.44M-17.1594 309.129L-99.1838 309.129" stroke="url(#paint15_linear_45_397)" stroke-width="5"/>
<path d="M8.2967 135.508L97.3922 135.508M94.8921 192.077L94.8921 134.094" stroke="url(#paint16_linear_45_397)" stroke-width="5"/>
</g>
</g>
<defs>
<filter id="filter0_f_45_397" x="153.674" y="17.7664" width="345.997" height="386.835" filterUnits="userSpaceOnUse" color-interpolation-filters="sRGB">
<feFlood flood-opacity="0" result="BackgroundImageFix"/>
<feBlend mode="normal" in="SourceGraphic" in2="BackgroundImageFix" result="shape"/>
<feGaussianBlur stdDeviation="2" result="effect1_foregroundBlur_45_397"/>
</filter>
<filter id="filter1_f_45_397" x="-122.276" y="129.008" width="345.997" height="498.151" filterUnits="userSpaceOnUse" color-interpolation-filters="sRGB">
<feFlood flood-opacity="0" result="BackgroundImageFix"/>
<feBlend mode="normal" in="SourceGraphic" in2="BackgroundImageFix" result="shape"/>
<feGaussianBlur stdDeviation="2" result="effect1_foregroundBlur_45_397"/>
</filter>
<linearGradient id="paint0_linear_45_397" x1="156.992" y1="212.486" x2="140.729" y2="98.6416" gradientUnits="userSpaceOnUse">
<stop stop-color="#400C4C"/>
<stop offset="1" stop-color="#400C4C" stop-opacity="0"/>
</linearGradient>
<linearGradient id="paint1_linear_45_397" x1="138.975" y1="283.766" x2="276.493" y2="1.76794" gradientUnits="userSpaceOnUse">
<stop stop-color="#D32C72"/>
<stop offset="0.966439" stop-color="#D32C72" stop-opacity="0"/>
</linearGradient>
<linearGradient id="paint2_linear_45_397" x1="466.351" y1="272.236" x2="258.108" y2="189.151" gradientUnits="userSpaceOnUse">
<stop offset="0.15087" stop-color="#D32C72"/>
<stop offset="1" stop-color="#9F1F66" stop-opacity="0"/>
</linearGradient>
<linearGradient id="paint3_linear_45_397" x1="370.185" y1="366.282" x2="281.796" y2="287.793" gradientUnits="userSpaceOnUse">
<stop stop-color="#701657"/>
<stop offset="1" stop-color="#701657" stop-opacity="0"/>
</linearGradient>
<linearGradient id="paint4_linear_45_397" x1="381.498" y1="281.429" x2="299.828" y2="345.422" gradientUnits="userSpaceOnUse">
<stop stop-color="#633E89"/>
<stop offset="1" stop-color="#533774" stop-opacity="0"/>
</linearGradient>
<linearGradient id="paint5_linear_45_397" x1="348.475" y1="322.266" x2="317.975" y2="74.2661" gradientUnits="userSpaceOnUse">
<stop stop-color="#0196C2"/>
<stop offset="0.954597" stop-color="#0090BE" stop-opacity="0"/>
</linearGradient>
<linearGradient id="paint6_linear_45_397" x1="468.826" y1="222.385" x2="320.334" y2="129.047" gradientUnits="userSpaceOnUse">
<stop stop-color="#8A4FB9"/>
<stop offset="0.663027" stop-color="#623D8D" stop-opacity="0"/>
<stop offset="0.893068" stop-color="#6C36AB" stop-opacity="0.67"/>
</linearGradient>
<linearGradient id="paint7_linear_45_397" x1="327.758" y1="400.93" x2="284.271" y2="350.372" gradientUnits="userSpaceOnUse">
<stop stop-color="#DB2C74"/>
<stop offset="1" stop-color="#DB2C74" stop-opacity="0"/>
</linearGradient>
<linearGradient id="paint8_linear_45_397" x1="193.412" y1="158.22" x2="181.265" y2="666.216" gradientUnits="userSpaceOnUse">
<stop offset="0.0129372" stop-color="#0088B2"/>
<stop offset="1" stop-color="#0088B2" stop-opacity="0"/>
</linearGradient>
<linearGradient id="paint9_linear_45_397" x1="224.049" y1="299.655" x2="264.804" y2="608.766" gradientUnits="userSpaceOnUse">
<stop offset="0.388684" stop-color="#400C4C"/>
<stop offset="0.869877" stop-color="#400C4C" stop-opacity="0"/>
</linearGradient>
<linearGradient id="paint10_linear_45_397" x1="211.211" y1="296.375" x2="100.903" y2="531.842" gradientUnits="userSpaceOnUse">
<stop stop-color="#D32C72"/>
<stop offset="0.969709" stop-color="#D32C72" stop-opacity="0"/>
</linearGradient>
<linearGradient id="paint11_linear_45_397" x1="-88.9557" y1="261.374" x2="119.287" y2="344.459" gradientUnits="userSpaceOnUse">
<stop offset="0.15087" stop-color="#D32C72"/>
<stop offset="1" stop-color="#9F1F66" stop-opacity="0"/>
</linearGradient>
<linearGradient id="paint12_linear_45_397" x1="7.21088" y1="167.328" x2="95.5992" y2="245.817" gradientUnits="userSpaceOnUse">
<stop stop-color="#701657"/>
<stop offset="1" stop-color="#701657" stop-opacity="0"/>
</linearGradient>
<linearGradient id="paint13_linear_45_397" x1="-4.10294" y1="252.181" x2="77.5679" y2="188.188" gradientUnits="userSpaceOnUse">
<stop stop-color="#633E89"/>
<stop offset="1" stop-color="#533774" stop-opacity="0"/>
</linearGradient>
<radialGradient id="paint14_radial_45_397" cx="0" cy="0" r="1" gradientUnits="userSpaceOnUse" gradientTransform="translate(26.6563 255.363) rotate(79.4226) scale(206.088 221.869)">
<stop stop-color="#0196C2"/>
<stop offset="0.954597" stop-color="#0090BE" stop-opacity="0"/>
</radialGradient>
<linearGradient id="paint15_linear_45_397" x1="-91.4305" y1="311.225" x2="57.0619" y2="404.563" gradientUnits="userSpaceOnUse">
<stop stop-color="#8A4FB9"/>
<stop offset="0.663027" stop-color="#623D8D" stop-opacity="0"/>
<stop offset="0.893068" stop-color="#6C36AB" stop-opacity="0.67"/>
</linearGradient>
<linearGradient id="paint16_linear_45_397" x1="49.6373" y1="132.68" x2="93.1243" y2="183.238" gradientUnits="userSpaceOnUse">
<stop stop-color="#DB2C74"/>
<stop offset="1" stop-color="#DB2C74" stop-opacity="0"/>
</linearGradient>
<clipPath id="clip0_45_397">
<rect width="361" height="599" fill="white"/>
</clipPath>
</defs>
</svg>
