<svg width="769" height="467" viewBox="0 0 769 467" fill="none" xmlns="http://www.w3.org/2000/svg">
<g clip-path="url(#clip0_168_166)">
<path d="M0 -25L177 152" stroke="url(#paint0_linear_168_166)" stroke-width="5"/>
<path d="M86 221L220 357" stroke="url(#paint1_linear_168_166)" stroke-width="5"/>
<path d="M77 -27L262.288 157.837L185.976 234.148L225.5 273.576L339.612 160L152.461 -27" stroke="url(#paint2_linear_168_166)" stroke-width="5" stroke-linejoin="round"/>
<path d="M743 -2L466.989 273.359C466.208 274.138 464.943 274.138 464.162 273.357L388 197.195" stroke="url(#paint3_linear_168_166)" stroke-width="5"/>
<path d="M772 273L658.115 388.001C657.335 388.788 656.063 388.791 655.279 388.008L615 347.728" stroke="url(#paint4_linear_168_166)" stroke-width="5"/>
<path d="M779.128 196.21L665.146 310.192C664.366 310.972 663.1 310.973 662.319 310.194L625.834 273.793C625.053 273.014 623.787 273.014 623.007 273.795L550.456 346.346C549.675 347.127 548.409 347.127 547.628 346.346L511.733 310.451C510.951 309.67 510.952 308.402 511.734 307.621L789 31" stroke="url(#paint5_linear_168_166)" stroke-width="5"/>
<path d="M373.833 -17L312.724 44.1091C311.943 44.8903 311.943 46.157 312.725 46.938L464.175 198.29C464.956 199.07 466.222 199.07 467.003 198.289L545 120.292" stroke="url(#paint6_radial_168_166)" stroke-width="5"/>
<path d="M388 48.1902L460.283 120.473C461.064 121.254 462.33 121.254 463.111 120.473L537.573 46.0107C538.354 45.2297 539.62 45.2297 540.401 46.0107L575.448 81.0572C576.227 81.8365 577.49 81.8385 578.272 81.0617L683 -23" stroke="url(#paint7_linear_168_166)" stroke-width="5"/>
<path d="M772 351L657.124 465.407C656.343 466.185 655.079 466.184 654.299 465.404L580 391.105" stroke="url(#paint8_linear_168_166)" stroke-width="5"/>
</g>
<defs>
<linearGradient id="paint0_linear_168_166" x1="-8.4734" y1="-34.4149" x2="118.628" y2="152" gradientUnits="userSpaceOnUse">
<stop offset="0.40625" stop-color="#0088B2"/>
<stop offset="1" stop-color="#0088B2" stop-opacity="0"/>
</linearGradient>
<linearGradient id="paint1_linear_168_166" x1="240.472" y1="386.278" x2="67.4313" y2="258.406" gradientUnits="userSpaceOnUse">
<stop stop-color="#400C4C"/>
<stop offset="1" stop-color="#400C4C" stop-opacity="0"/>
</linearGradient>
<linearGradient id="paint2_linear_168_166" x1="286.404" y1="406.787" x2="120.164" y2="-53.6061" gradientUnits="userSpaceOnUse">
<stop stop-color="#D32C72"/>
<stop offset="0.969709" stop-color="#D32C72" stop-opacity="0"/>
</linearGradient>
<linearGradient id="paint3_linear_168_166" x1="732.707" y1="54.3758" x2="344.963" y2="221.35" gradientUnits="userSpaceOnUse">
<stop offset="0.15087" stop-color="#D32C72"/>
<stop offset="1" stop-color="#9F1F66" stop-opacity="0"/>
</linearGradient>
<linearGradient id="paint4_linear_168_166" x1="731.007" y1="306.776" x2="508.41" y2="319.853" gradientUnits="userSpaceOnUse">
<stop stop-color="#701657"/>
<stop offset="1" stop-color="#701657" stop-opacity="0"/>
</linearGradient>
<linearGradient id="paint5_linear_168_166" x1="632.468" y1="178.765" x2="608.992" y2="372.66" gradientUnits="userSpaceOnUse">
<stop stop-color="#633E89"/>
<stop offset="1" stop-color="#533774" stop-opacity="0"/>
</linearGradient>
<radialGradient id="paint6_radial_168_166" cx="0" cy="0" r="1" gradientUnits="userSpaceOnUse" gradientTransform="translate(586.448 216.158) rotate(-145.595) scale(387.561 417.14)">
<stop stop-color="#0196C2"/>
<stop offset="0.954597" stop-color="#0090BE" stop-opacity="0"/>
</radialGradient>
<linearGradient id="paint7_linear_168_166" x1="669.869" y1="-15.5058" x2="347.668" y2="58.4494" gradientUnits="userSpaceOnUse">
<stop stop-color="#8A4FB9"/>
<stop offset="0.663027" stop-color="#623D8D" stop-opacity="0"/>
<stop offset="0.893068" stop-color="#6C36AB" stop-opacity="0.67"/>
</linearGradient>
<linearGradient id="paint8_linear_168_166" x1="720.351" y1="409.994" x2="594.231" y2="400.473" gradientUnits="userSpaceOnUse">
<stop stop-color="#DB2C74"/>
<stop offset="1" stop-color="#DB2C74" stop-opacity="0"/>
</linearGradient>
<clipPath id="clip0_168_166">
<rect width="769" height="467" fill="white"/>
</clipPath>
</defs>
</svg>
