<svg width="10" height="21" viewBox="0 0 10 21" fill="none" xmlns="http://www.w3.org/2000/svg">
<path fill-rule="evenodd" clip-rule="evenodd" d="M0.146894 15.1469C0.193339 15.1003 0.248515 15.0634 0.30926 15.0382C0.370005 15.013 0.435127 15 0.500894 15C0.566661 15 0.631782 15.013 0.692528 15.0382C0.753273 15.0634 0.808448 15.1003 0.854894 15.1469L4.50089 18.7939L8.14689 15.1469C8.24078 15.053 8.36812 15.0003 8.50089 15.0003C8.63367 15.0003 8.76101 15.053 8.85489 15.1469C8.94878 15.2408 9.00152 15.3681 9.00152 15.5009C9.00152 15.6337 8.94878 15.761 8.85489 15.8549L4.85489 19.8549C4.80845 19.9015 4.75327 19.9384 4.69253 19.9636C4.63178 19.9888 4.56666 20.0018 4.50089 20.0018C4.43513 20.0018 4.37001 19.9888 4.30926 19.9636C4.24852 19.9384 4.19334 19.9015 4.14689 19.8549L0.146894 15.8549C0.10033 15.8084 0.0633878 15.7533 0.0381813 15.6925C0.0129749 15.6318 0 15.5667 0 15.5009C0 15.4351 0.0129749 15.37 0.0381813 15.3093C0.0633878 15.2485 0.10033 15.1933 0.146894 15.1469ZM0.146894 4.85489C0.193339 4.90146 0.248515 4.9384 0.30926 4.96361C0.370005 4.98881 0.435127 5.00179 0.500894 5.00179C0.566661 5.00179 0.631782 4.98881 0.692528 4.96361C0.753273 4.9384 0.808448 4.90146 0.854894 4.85489L4.50089 1.20789L8.14689 4.85489C8.24078 4.94878 8.36812 5.00153 8.50089 5.00153C8.63367 5.00153 8.76101 4.94878 8.85489 4.85489C8.94878 4.76101 9.00152 4.63367 9.00152 4.50089C9.00152 4.36812 8.94878 4.24078 8.85489 4.14689L4.85489 0.146894C4.80845 0.10033 4.75327 0.0633878 4.69253 0.0381813C4.63178 0.0129749 4.56666 0 4.50089 0C4.43513 0 4.37001 0.0129749 4.30926 0.0381813C4.24852 0.0633878 4.19334 0.10033 4.14689 0.146894L0.146894 4.14689C0.10033 4.19334 0.0633878 4.24852 0.0381813 4.30926C0.0129749 4.37001 0 4.43513 0 4.50089C0 4.56666 0.0129749 4.63178 0.0381813 4.69253C0.0633878 4.75327 0.10033 4.80845 0.146894 4.85489Z" fill="white"/>
</svg>
