<svg width="160" height="49" viewBox="0 0 160 49" fill="none" xmlns="http://www.w3.org/2000/svg">
<path fill-rule="evenodd" clip-rule="evenodd" d="M0.651893 45.5992C-0.0790448 44.1476 -0.200595 42.4664 0.313979 40.9256C0.828554 39.3848 1.9371 38.1105 3.39578 37.383L77.2224 0.648768C78.0779 0.222143 79.0216 1.04906e-06 79.9786 1.04906e-06C80.9355 1.04906e-06 81.8792 0.222143 82.7348 0.648768L156.561 37.383C157.29 37.7394 157.941 38.2358 158.476 38.8436C159.011 39.4513 159.419 40.1585 159.678 40.9243C159.938 41.69 160.042 42.4993 159.985 43.3053C159.928 44.1113 159.712 44.8982 159.348 45.6205C158.984 46.3429 158.48 46.9865 157.866 47.5141C157.251 48.0418 156.537 48.4431 155.765 48.695C154.994 48.9468 154.18 49.0442 153.371 48.9816C152.561 48.9189 151.772 48.6974 151.049 48.3298L79.9786 12.9792L8.90817 48.3298C7.44945 49.0572 5.76011 49.1781 4.21178 48.6661C2.66344 48.154 1.38292 47.0508 0.651893 45.5992V45.5992Z" fill="#FAFAFA"/>
</svg>
