<svg width="78" height="67" viewBox="0 0 78 67" fill="none" xmlns="http://www.w3.org/2000/svg">
<path fill-rule="evenodd" clip-rule="evenodd" d="M40.8661 2.10097C41.1873 2.26297 41.3903 2.59412 41.3903 2.95636V64.0436C41.3903 64.4059 41.1873 64.737 40.8661 64.899C40.5449 65.061 40.1604 65.0261 39.8731 64.8087L17.0528 47.5465H2.94821C2.42453 47.5465 2 47.1183 2 46.5901V20.4099C2 19.8817 2.42453 19.4535 2.94821 19.4535H17.0528L39.8731 2.19128C40.1604 1.97393 40.5449 1.93897 40.8661 2.10097ZM39.4938 4.86908L17.9378 21.175C17.7737 21.2991 17.5741 21.3662 17.3689 21.3662H3.89642V45.6338H17.3689C17.5741 45.6338 17.7737 45.7009 17.9378 45.825L39.4938 62.1309V4.86908ZM54.2806 19.655C54.694 19.3307 55.2897 19.4058 55.6112 19.8227L64.9573 31.9423L74.3033 19.8227C74.6248 19.4058 75.2205 19.3307 75.6339 19.655C76.0473 19.9792 76.1217 20.5801 75.8002 20.997L66.1585 33.5L75.8002 46.003C76.1217 46.4199 76.0473 47.0208 75.6339 47.345C75.2205 47.6693 74.6248 47.5942 74.3033 47.1773L64.9573 35.0577L55.6112 47.1773C55.2897 47.5942 54.694 47.6693 54.2806 47.345C53.8672 47.0208 53.7928 46.4199 54.1143 46.003L63.756 33.5L54.1143 20.997C53.7928 20.5801 53.8672 19.9792 54.2806 19.655Z" fill="white" stroke="white" stroke-width="4" stroke-linecap="round" stroke-linejoin="round"/>
</svg>
