<svg width="82" height="68" viewBox="0 0 82 68" fill="none" xmlns="http://www.w3.org/2000/svg">
<path fill-rule="evenodd" clip-rule="evenodd" d="M41.2729 2.07918C41.527 2.20623 41.6875 2.46593 41.6875 2.75V64.4375C41.6875 64.7216 41.527 64.9813 41.2729 65.1083C41.0188 65.2354 40.7148 65.208 40.4875 65.0375L17.1875 47.5625H2.75C2.33579 47.5625 2 47.2267 2 46.8125V20.375C2 19.9608 2.33579 19.625 2.75 19.625H17.1875L40.4875 2.15C40.7148 1.97956 41.0188 1.95214 41.2729 2.07918ZM40.1875 4.25001L17.8875 20.975C17.7577 21.0724 17.5998 21.125 17.4375 21.125H3.5V46.0625H17.4375C17.5998 46.0625 17.7577 46.1151 17.8875 46.2125L40.1875 62.9375V4.25001ZM60.8292 5.35209C61.0144 4.98161 61.4649 4.83144 61.8354 5.01668C67.8003 7.99913 72.3233 11.7525 75.3505 16.4824C78.3792 21.2149 79.875 26.8695 79.875 33.5938C79.875 40.318 78.3792 45.9726 75.3505 50.7051C72.3233 55.435 67.8003 59.1884 61.8354 62.1708C61.4649 62.3561 61.0144 62.2059 60.8292 61.8354C60.6439 61.4649 60.7941 61.0144 61.1646 60.8292C66.9497 57.9366 71.2392 54.3463 74.087 49.8965C76.9333 45.4492 78.375 40.0882 78.375 33.5938C78.375 27.0993 76.9333 21.7383 74.087 17.291C71.2392 12.8412 66.9497 9.25088 61.1646 6.35833C60.7941 6.17308 60.6439 5.72258 60.8292 5.35209ZM54.9542 22.9771C55.1394 22.6066 55.5899 22.4564 55.9604 22.6417L55.625 23.3125C55.9604 22.6417 55.96 22.6415 55.9604 22.6417L55.9641 22.6435L55.97 22.6465L55.988 22.6558C56.0027 22.6635 56.0229 22.6741 56.0482 22.6878C56.0988 22.7152 56.1697 22.7548 56.2582 22.8069C56.4351 22.9111 56.6823 23.0659 56.9765 23.2742C57.564 23.6904 58.3436 24.324 59.1231 25.201C60.6877 26.9611 62.25 29.7023 62.25 33.5938C62.25 37.4852 60.6877 40.2264 59.1231 41.9866C58.3436 42.8635 57.564 43.4972 56.9765 43.9133C56.6823 44.1217 56.4351 44.2764 56.2582 44.3806C56.1697 44.4327 56.0988 44.4723 56.0482 44.4997C56.0229 44.5134 56.0027 44.5241 55.988 44.5317L55.97 44.541L55.9641 44.544L55.962 44.545C55.9616 44.5452 55.9604 44.5458 55.625 43.875L55.9604 44.5458C55.5899 44.7311 55.1394 44.5809 54.9542 44.2104C54.7691 43.8403 54.9188 43.3902 55.2886 43.2047C55.2888 43.2046 55.2894 43.2043 55.2896 43.2042L55.2958 43.201C55.3032 43.1971 55.316 43.1904 55.3338 43.1808C55.3693 43.1615 55.4245 43.1308 55.4967 43.0883C55.6411 43.0032 55.8528 42.871 56.1095 42.6893C56.6235 42.3251 57.3127 41.7654 58.0019 40.99C59.3748 39.4455 60.75 37.046 60.75 33.5938C60.75 30.1415 59.3748 27.742 58.0019 26.1975C57.3127 25.4221 56.6235 24.8624 56.1095 24.4983C55.8528 24.3165 55.6411 24.1843 55.4967 24.0992C55.4245 24.0567 55.3693 24.026 55.3338 24.0068C55.3262 24.0027 55.3196 23.9991 55.3139 23.9961C55.3061 23.9919 55.3001 23.9888 55.2958 23.9865L55.2896 23.9833C55.2894 23.9832 55.2898 23.9834 55.2896 23.9833M54.9542 22.9771C54.769 23.3474 54.9195 23.7979 55.2896 23.9833Z" fill="white"/>
<path d="M55.9604 22.6417C55.5899 22.4564 55.1394 22.6066 54.9542 22.9771M55.9604 22.6417L55.625 23.3125C55.9604 22.6417 55.96 22.6415 55.9604 22.6417ZM55.9604 22.6417L55.9641 22.6435L55.97 22.6465L55.988 22.6558C56.0027 22.6635 56.0229 22.6741 56.0482 22.6878C56.0988 22.7152 56.1697 22.7548 56.2582 22.8069C56.4351 22.9111 56.6823 23.0659 56.9765 23.2742C57.564 23.6904 58.3436 24.324 59.1231 25.201C60.6877 26.9611 62.25 29.7023 62.25 33.5938C62.25 37.4852 60.6877 40.2264 59.1231 41.9866C58.3436 42.8635 57.564 43.4972 56.9765 43.9133C56.6823 44.1217 56.4351 44.2764 56.2582 44.3806C56.1697 44.4327 56.0988 44.4723 56.0482 44.4997C56.0229 44.5134 56.0027 44.5241 55.988 44.5317L55.97 44.541L55.9641 44.544L55.962 44.545C55.9616 44.5452 55.9604 44.5458 55.625 43.875L55.9604 44.5458C55.5899 44.7311 55.1394 44.5809 54.9542 44.2104C54.7691 43.8403 54.9188 43.3902 55.2886 43.2047C55.2888 43.2046 55.2894 43.2043 55.2896 43.2042L55.2958 43.201C55.3032 43.1971 55.316 43.1904 55.3338 43.1808C55.3693 43.1615 55.4245 43.1308 55.4967 43.0883C55.6411 43.0032 55.8528 42.871 56.1095 42.6893C56.6235 42.3251 57.3127 41.7654 58.0019 40.99C59.3748 39.4455 60.75 37.046 60.75 33.5938C60.75 30.1415 59.3748 27.742 58.0019 26.1975C57.3127 25.4221 56.6235 24.8624 56.1095 24.4983C55.8528 24.3165 55.6411 24.1843 55.4967 24.0992C55.4245 24.0567 55.3693 24.026 55.3338 24.0068C55.3262 24.0027 55.3196 23.9991 55.3139 23.9961C55.3061 23.9919 55.3001 23.9888 55.2958 23.9865L55.2896 23.9833M54.9542 22.9771L55.2896 23.9833M54.9542 22.9771C54.769 23.3474 54.9195 23.7979 55.2896 23.9833M55.2896 23.9833C55.2898 23.9834 55.2894 23.9832 55.2896 23.9833ZM41.6875 2.75C41.6875 2.46593 41.527 2.20623 41.2729 2.07918C41.0188 1.95214 40.7148 1.97956 40.4875 2.15L17.1875 19.625H2.75C2.33579 19.625 2 19.9608 2 20.375V46.8125C2 47.2267 2.33579 47.5625 2.75 47.5625H17.1875L40.4875 65.0375C40.7148 65.208 41.0188 65.2354 41.2729 65.1083C41.527 64.9813 41.6875 64.7216 41.6875 64.4375V2.75ZM17.8875 20.975L40.1875 4.25001V62.9375L17.8875 46.2125C17.7577 46.1151 17.5998 46.0625 17.4375 46.0625H3.5V21.125H17.4375C17.5998 21.125 17.7577 21.0724 17.8875 20.975ZM61.8354 5.01668C61.4649 4.83144 61.0144 4.98161 60.8292 5.35209C60.6439 5.72258 60.7941 6.17308 61.1646 6.35833C66.9497 9.25088 71.2392 12.8412 74.087 17.291C76.9333 21.7383 78.375 27.0993 78.375 33.5938C78.375 40.0882 76.9333 45.4492 74.087 49.8965C71.2392 54.3463 66.9497 57.9366 61.1646 60.8292C60.7941 61.0144 60.6439 61.4649 60.8292 61.8354C61.0144 62.2059 61.4649 62.3561 61.8354 62.1708C67.8003 59.1884 72.3233 55.435 75.3505 50.7051C78.3792 45.9726 79.875 40.318 79.875 33.5938C79.875 26.8695 78.3792 21.2149 75.3505 16.4824C72.3233 11.7525 67.8003 7.99913 61.8354 5.01668Z" stroke="white" stroke-width="4" stroke-linecap="round" stroke-linejoin="round"/>
</svg>
